<svg xmlns="http://www.w3.org/2000/svg" width="19" height="19" viewBox="0 0 19 19" fill="none"><path d="M9.49541 19C14.7023 19 19 14.7002 19 9.5C19 4.29981 14.6931 0 9.48623 0C4.28855 0 0 4.29981 0 9.5C0 14.7002 4.29773 19 9.49541 19ZM9.49541 17.1073C5.28033 17.1073 1.9101 13.7171 1.9101 9.5C1.9101 5.28288 5.28033 1.90184 9.48623 1.90184C13.7013 1.90184 17.0899 5.28288 17.0991 9.5C17.1083 13.7171 13.7105 17.1073 9.49541 17.1073ZM12.3514 11.9163C12.8197 11.9163 13.1136 11.5672 13.1136 11.0711V6.79884C13.1136 6.16489 12.7554 5.87089 12.1769 5.87089H7.87917C7.38328 5.87089 7.06187 6.17408 7.06187 6.63346C7.06187 7.09284 7.38328 7.39603 7.88835 7.39603H9.44031L10.68 7.24903L9.33011 8.48017L6.116 11.6958C5.95988 11.852 5.85887 12.0725 5.85887 12.293C5.85887 12.78 6.19865 13.1015 6.67617 13.1015C6.92412 13.1015 7.12615 13.0189 7.30063 12.8443L10.4964 9.647L11.7269 8.30561L11.5892 9.61944V11.0803C11.5892 11.5856 11.8922 11.9163 12.3514 11.9163Z" fill="#19417F"></path></svg>