<svg xmlns="http://www.w3.org/2000/svg" width="14" height="26" viewBox="0 0 14 26" fill="none"><path d="M0.0468585 17.5952C0.0468585 18.3488 0.660727 18.9597 1.41797 18.9597C2.17521 18.9597 2.78906 18.3488 2.78906 17.5952L2.78906 9.07517C2.78906 8.32158 2.17521 7.71067 1.41797 7.71067C0.660727 7.71067 0.0468585 8.32158 0.0468585 9.07517L0.0468585 17.5952Z" fill="url(#paint0_linear_2195_3697)"></path><path d="M5.36594 21.4138C5.36594 22.1747 5.98577 22.7915 6.75036 22.7915C7.51495 22.7915 8.13477 22.1747 8.13477 21.4138L8.13477 5.25367C8.13477 4.49276 7.51495 3.87593 6.75036 3.87593C5.98577 3.87593 5.36594 4.49276 5.36594 5.25367L5.36594 21.4138Z" fill="url(#paint1_linear_2195_3697)"></path><path d="M10.7103 24.477C10.7103 25.2045 11.3029 25.7942 12.0339 25.7942C12.7649 25.7942 13.3574 25.2045 13.3574 24.477L13.3574 2.19088C13.3574 1.46342 12.7649 0.873699 12.0339 0.873699C11.3029 0.873699 10.7103 1.46342 10.7103 2.19088L10.7103 24.477Z" fill="url(#paint2_linear_2195_3697)"></path><defs><linearGradient id="paint0_linear_2195_3697" x1="1.41796" y1="18.9597" x2="1.41796" y2="7.71067" gradientUnits="userSpaceOnUse"><stop stop-color="#EB9B1A"></stop><stop offset="0.61" stop-color="#E57B2C"></stop><stop offset="1" stop-color="#E2663A"></stop></linearGradient><linearGradient id="paint1_linear_2195_3697" x1="6.75035" y1="22.7896" x2="6.75035" y2="3.87403" gradientUnits="userSpaceOnUse"><stop stop-color="#EB9B1A"></stop><stop offset="0.61" stop-color="#E57B2C"></stop><stop offset="1" stop-color="#E2663A"></stop></linearGradient><linearGradient id="paint2_linear_2195_3697" x1="12.0339" y1="25.7942" x2="12.0339" y2="0.873699" gradientUnits="userSpaceOnUse"><stop stop-color="#EB9B1A"></stop><stop offset="0.61" stop-color="#E57B2C"></stop><stop offset="1" stop-color="#E2663A"></stop></linearGradient></defs></svg>